<svg xmlns="http://www.w3.org/2000/svg" width="20" height="20" viewBox="0 0 20 20">
  <g id="Group_75769" data-name="Group 75769" transform="translate(-161 -183)">
    <rect id="Rectangle_1040" data-name="Rectangle 1040" width="20" height="20" rx="10" transform="translate(161 183)" fill="#e09a45"/>
    <g id="Rectangle_30473" data-name="Rectangle 30473" transform="translate(161 183)" fill="none" stroke="#ffb72b" stroke-width="1" opacity="0.39">
      <rect width="20" height="20" rx="10" stroke="none"/>
      <rect x="0.5" y="0.5" width="19" height="19" rx="9.5" fill="none"/>
    </g>
    <g id="noun_Question_3095700" transform="translate(168.452 188.949)">
      <g id="Group_46039" data-name="Group 46039">
        <path id="Path_38140" data-name="Path 38140" d="M5.093,2.606A2.584,2.584,0,0,0,2.558,0,2.588,2.588,0,0,0,0,2.606,2.632,2.632,0,0,0,1.469,4.975a1.2,1.2,0,0,1,.687,1.09v.19h.805l-.024-.19a1.973,1.973,0,0,0-1.113-1.8A1.812,1.812,0,0,1,.805,2.606,1.774,1.774,0,0,1,2.558.805a1.77,1.77,0,0,1,1.729,1.8Z" fill="#fff" stroke="#fff" stroke-width="0.5"/>
        <path id="Path_38141" data-name="Path 38141" d="M83.592,293a.581.581,0,1,0,.569.569A.582.582,0,0,0,83.592,293Z" transform="translate(-81.034 -286.059)" fill="#fff" stroke="#fff" stroke-width="0.5" fill-rule="evenodd"/>
      </g>
    </g>
  </g>
</svg>
